HIERARCHY
ROOT Root
{
  OFFSET 0.0 0.0 0.0
  CHANNELS 6 Xposition Yposition Zposition Zrotation Yrotation Xrotation
  JOINT Hips
  {
    OFFSET 0.0 100.0 0.0
    CHANNELS 6 Xposition Yposition Zposition Zrotation Yrotation Xrotation
    JOINT Spine1
    {
      OFFSET -0.013727 5.003763 -0.053727
      CHANNELS 3 Zrotation Yrotation Xrotation
      JOINT Spine2
      {
        OFFSET -0.0 7.125301 -0.029825
        CHANNELS 3 Zrotation Yrotation Xrotation
        JOINT Chest
        {
          OFFSET -1e-06 7.550063 -0.815971
          CHANNELS 3 Zrotation Yrotation Xrotation
          JOINT Neck1
          {
            OFFSET -0.181677 26.311295 -0.553348
            CHANNELS 3 Zrotation Yrotation Xrotation
            JOINT Neck2
            {
              OFFSET -3e-06 7.709397 2.302585
              CHANNELS 3 Zrotation Yrotation Xrotation
              JOINT Head
              {
                OFFSET -5e-06 6.128916 1.953709
                CHANNELS 3 Zrotation Yrotation Xrotation
                JOINT HeadEnd
                {
                  OFFSET 0.003598 16.065403 -1.835379
                  CHANNELS 3 Zrotation Yrotation Xrotation
                }
                JOINT Jaw
                {
                  OFFSET 0.002637 0.475592 3.094941
                  CHANNELS 3 Zrotation Yrotation Xrotation
                }
                JOINT LeftEye
                {
                  OFFSET 3.206381 5.380205 7.586883
                  CHANNELS 3 Zrotation Yrotation Xrotation
                }
                JOINT RightEye
                {
                  OFFSET -3.22244 5.361869 7.558234
                  CHANNELS 3 Zrotation Yrotation Xrotation
                }
              }
            }
          }
          JOINT LeftShoulder
          {
            OFFSET 1.621652 23.237164 5.113413
            CHANNELS 3 Zrotation Yrotation Xrotation
            JOINT LeftArm
            {
              OFFSET 14.919846 2e-06 -5.502326
              CHANNELS 3 Zrotation Yrotation Xrotation
              JOINT LeftForeArm
              {
                OFFSET 28.739307 0.0 -0.002588
                CHANNELS 3 Zrotation Yrotation Xrotation
                JOINT LeftHand
                {
                  OFFSET 27.093981 -1e-06 0.002609
                  CHANNELS 3 Zrotation Yrotation Xrotation
                  JOINT LeftHandThumb1
                  {
                    OFFSET 2.276482 -1.392045 3.191413
                    CHANNELS 3 Zrotation Yrotation Xrotation
                    JOINT LeftHandThumb2
                    {
                      OFFSET 4.012836 -1.828127 1.641654
                      CHANNELS 3 Zrotation Yrotation Xrotation
                      JOINT LeftHandThumb3
                      {
                        OFFSET 2.798515 0.0 -3e-06
                        CHANNELS 3 Zrotation Yrotation Xrotation
                        JOINT LeftHandThumbEnd
                        {
                          OFFSET 3.180793 -4e-06 4e-06
                          CHANNELS 3 Zrotation Yrotation Xrotation
                        }
                      }
                    }
                  }
                  JOINT LeftHandIndex1
                  {
                    OFFSET 3.247555 -0.531998 2.296169
                    CHANNELS 3 Zrotation Yrotation Xrotation
                    JOINT LeftHandIndex2
                    {
                      OFFSET 6.364578 0.01206 0.1786
                      CHANNELS 3 Zrotation Yrotation Xrotation
                      JOINT LeftHandIndex3
                      {
                        OFFSET 3.662364 0.0 0.0
                        CHANNELS 3 Zrotation Yrotation Xrotation
                        JOINT LeftHandIndex4
                        {
                          OFFSET 2.329242 4e-06 4e-06
                          CHANNELS 3 Zrotation Yrotation Xrotation
                          JOINT LeftHandIndexEnd
                          {
                            OFFSET 2.759615 -0.180537 -0.113024
                            CHANNELS 3 Zrotation Yrotation Xrotation
                          }
                        }
                      }
                    }
                  }
                  JOINT LeftHandMiddle1
                  {
                    OFFSET 3.163495 0.240981 1.000332
                    CHANNELS 3 Zrotation Yrotation Xrotation
                    JOINT LeftHandMiddle2
                    {
                      OFFSET 6.19078 -0.259278 -1.002548
                      CHANNELS 3 Zrotation Yrotation Xrotation
                      JOINT LeftHandMiddle3
                      {
                        OFFSET 4.35652 -4e-06 -1e-06
                        CHANNELS 3 Zrotation Yrotation Xrotation
                        JOINT LeftHandMiddle4
                        {
                          OFFSET 2.996877 -8e-06 0.0
                          CHANNELS 3 Zrotation Yrotation Xrotation
                          JOINT LeftHandMiddleEnd
                          {
                            OFFSET 2.304287 -0.294569 -0.031741
                            CHANNELS 3 Zrotation Yrotation Xrotation
                          }
                        }
                      }
                    }
                  }
                  JOINT LeftHandRing1
                  {
                    OFFSET 2.882643 -0.053652 -0.322543
                    CHANNELS 3 Zrotation Yrotation Xrotation
                    JOINT LeftHandRing2
                    {
                      OFFSET 5.854541 -0.486202 -1.373841
                      CHANNELS 3 Zrotation Yrotation Xrotation
                      JOINT LeftHandRing3
                      {
                        OFFSET 4.350578 0.0 3e-06
                        CHANNELS 3 Zrotation Yrotation Xrotation
                        JOINT LeftHandRing4
                        {
                          OFFSET 2.651321 7e-06 2e-06
                          CHANNELS 3 Zrotation Yrotation Xrotation
                          JOINT LeftHandRingEnd
                          {
                            OFFSET 1.936105 0.077687 -7.1e-05
                            CHANNELS 3 Zrotation Yrotation Xrotation
                          }
                        }
                      }
                    }
                  }
                  JOINT LeftHandPinky1
                  {
                    OFFSET 2.8655 -0.310005 -1.600378
                    CHANNELS 3 Zrotation Yrotation Xrotation
                    JOINT LeftHandPinky2
                    {
                      OFFSET 5.087849 -1.331141 -1.77123
                      CHANNELS 3 Zrotation Yrotation Xrotation
                      JOINT LeftHandPinky3
                      {
                        OFFSET 3.070974 4e-06 0.0
                        CHANNELS 3 Zrotation Yrotation Xrotation
                        JOINT LeftHandPinky4
                        {
                          OFFSET 1.549672 0.0 1e-06
                          CHANNELS 3 Zrotation Yrotation Xrotation
                          JOINT LeftHandPinkyEnd
                          {
                            OFFSET 1.944893 -0.157802 0.057219
                            CHANNELS 3 Zrotation Yrotation Xrotation
                          }
                        }
                      }
                    }
                  }
                }
              }
            }
          }
          JOINT RightShoulder
          {
            OFFSET -1.380118 23.180309 5.214158
            CHANNELS 3 Zrotation Yrotation Xrotation
            JOINT RightArm
            {
              OFFSET -15.037196 1.2e-05 -5.545604
              CHANNELS 3 Zrotation Yrotation Xrotation
              JOINT RightForeArm
              {
                OFFSET -28.736639 2e-06 -0.002597
                CHANNELS 3 Zrotation Yrotation Xrotation
                JOINT RightHand
                {
                  OFFSET -27.133619 -0.0 0.002613
                  CHANNELS 3 Zrotation Yrotation Xrotation
                  JOINT RightHandThumb1
                  {
                    OFFSET -2.274032 -1.383988 3.163127
                    CHANNELS 3 Zrotation Yrotation Xrotation
                    JOINT RightHandThumb2
                    {
                      OFFSET -4.011429 -1.827466 1.640914
                      CHANNELS 3 Zrotation Yrotation Xrotation
                      JOINT RightHandThumb3
                      {
                        OFFSET -2.794935 -4e-06 -3e-06
                        CHANNELS 3 Zrotation Yrotation Xrotation
                        JOINT RightHandThumbEnd
                        {
                          OFFSET -3.183852 4e-06 1e-06
                          CHANNELS 3 Zrotation Yrotation Xrotation
                        }
                      }
                    }
                  }
                  JOINT RightHandIndex1
                  {
                    OFFSET -3.253266 -0.520057 2.282866
                    CHANNELS 3 Zrotation Yrotation Xrotation
                    JOINT RightHandIndex2
                    {
                      OFFSET -6.341917 0.012471 0.178266
                      CHANNELS 3 Zrotation Yrotation Xrotation
                      JOINT RightHandIndex3
                      {
                        OFFSET -3.654871 -8e-06 -0.0
                        CHANNELS 3 Zrotation Yrotation Xrotation
                        JOINT RightHandIndex4
                        {
                          OFFSET -2.327586 0.0 1e-06
                          CHANNELS 3 Zrotation Yrotation Xrotation
                          JOINT RightHandIndexEnd
                          {
                            OFFSET -2.76179 -0.180656 -0.113078
                            CHANNELS 3 Zrotation Yrotation Xrotation
                          }
                        }
                      }
                    }
                  }
                  JOINT RightHandMiddle1
                  {
                    OFFSET -3.168106 0.246593 1.00103
                    CHANNELS 3 Zrotation Yrotation Xrotation
                    JOINT RightHandMiddle2
                    {
                      OFFSET -6.180828 -0.258836 -1.000895
                      CHANNELS 3 Zrotation Yrotation Xrotation
                      JOINT RightHandMiddle3
                      {
                        OFFSET -4.348901 0.0 -0.0
                        CHANNELS 3 Zrotation Yrotation Xrotation
                        JOINT RightHandMiddle4
                        {
                          OFFSET -3.00024 -4e-06 -2e-06
                          CHANNELS 3 Zrotation Yrotation Xrotation
                          JOINT RightHandMiddleEnd
                          {
                            OFFSET -2.30252 -0.29437 -0.031706
                            CHANNELS 3 Zrotation Yrotation Xrotation
                          }
                        }
                      }
                    }
                  }
                  JOINT RightHandRing1
                  {
                    OFFSET -2.88569 -0.067952 -0.308858
                    CHANNELS 3 Zrotation Yrotation Xrotation
                    JOINT RightHandRing2
                    {
                      OFFSET -5.854198 -0.48613 -1.373731
                      CHANNELS 3 Zrotation Yrotation Xrotation
                      JOINT RightHandRing3
                      {
                        OFFSET -4.33881 -4e-06 -0.0
                        CHANNELS 3 Zrotation Yrotation Xrotation
                        JOINT RightHandRing4
                        {
                          OFFSET -2.654903 -4e-06 4e-06
                          CHANNELS 3 Zrotation Yrotation Xrotation
                          JOINT RightHandRingEnd
                          {
                            OFFSET -1.933568 0.077527 -5.2e-05
                            CHANNELS 3 Zrotation Yrotation Xrotation
                          }
                        }
                      }
                    }
                  }
                  JOINT RightHandPinky1
                  {
                    OFFSET -2.866425 -0.342796 -1.584145
                    CHANNELS 3 Zrotation Yrotation Xrotation
                    JOINT RightHandPinky2
                    {
                      OFFSET -5.091371 -1.332055 -1.772385
                      CHANNELS 3 Zrotation Yrotation Xrotation
                      JOINT RightHandPinky3
                      {
                        OFFSET -3.062664 -4e-06 1e-06
                        CHANNELS 3 Zrotation Yrotation Xrotation
                        JOINT RightHandPinky4
                        {
                          OFFSET -1.546529 4e-06 -2e-06
                          CHANNELS 3 Zrotation Yrotation Xrotation
                          JOINT RightHandPinkyEnd
                          {
                            OFFSET -1.945119 -0.157718 0.057211
                            CHANNELS 3 Zrotation Yrotation Xrotation
                          }
                        }
                      }
                    }
                  }
                }
              }
            }
          }
        }
      }
    }
    JOINT LeftLeg
    {
      OFFSET 10.043214 -8.434526 2.595655
      CHANNELS 3 Zrotation Yrotation Xrotation
      JOINT LeftShin
      {
        OFFSET -1e-06 -43.221752 -0.802913
        CHANNELS 3 Zrotation Yrotation Xrotation
        JOINT LeftFoot
        {
          OFFSET 1e-06 -42.155094 -3.481523
          CHANNELS 3 Zrotation Yrotation Xrotation
          JOINT LeftToeBase
          {
            OFFSET 0.0 -5.059472 13.231529
            CHANNELS 3 Zrotation Yrotation Xrotation
            JOINT LeftToeEnd
            {
              OFFSET -0.009607 -1.647619 6.513017
              CHANNELS 3 Zrotation Yrotation Xrotation
            }
          }
        }
      }
    }
    JOINT RightLeg
    {
      OFFSET -10.047278 -8.29526 2.620317
      CHANNELS 3 Zrotation Yrotation Xrotation
      JOINT RightShin
      {
        OFFSET 1e-06 -43.362206 -0.805556
        CHANNELS 3 Zrotation Yrotation Xrotation
        JOINT RightFoot
        {
          OFFSET 2e-06 -42.117393 -3.478398
          CHANNELS 3 Zrotation Yrotation Xrotation
          JOINT RightToeBase
          {
            OFFSET -0.0 -5.079609 13.284196
            CHANNELS 3 Zrotation Yrotation Xrotation
            JOINT RightToeEnd
            {
              OFFSET 0.009532 -1.634378 6.460591
              CHANNELS 3 Zrotation Yrotation Xrotation
            }
          }
        }
      }
    }
  }
}
MOTION
Frames: 4
Frame Time: 0.03333333333333333
0.0 0.0 0.0 0.0 -0.0 0.0 20.772022 91.744698 8.51197 -3.04336 -18.512474 17.78846 0.400262 0.518946 12.791321 -0.284441 1.720344 -0.525838 2.322942 0.261061 6.079144 5.515134 1.3038 0.007948 -1.030152 0.755255 -3.604476 -4.379718 1.484498 -2.074082 7.7e-05 -2.2e-05 5e-06 0.040579 -0.057732 -0.06562 0.787727 -3.842521 -10.765416 -0.714665 3.724485 -10.715712 30.227095 -23.003479 -12.133111 8.591791 -47.797268 -83.653252 1.890761 -22.473911 -0.353403 4.917673 2.568397 -59.952976 -5.882108 9.861287 0.70259 -10.936873 -0.360575 7.156204 1e-06 8.774825 -2e-06 -16.203293 19.218456 6.452245 -1.844032 2.498505 -2.507278 -10.1636 4.678945 4.621109 -20.976023 -1e-06 3e-06 -21.226282 2.451699 -3.594 -1e-06 -5e-06 -0.0 -1.362681 2.240798 -0.746324 -21.334913 0.58491 3.008325 -13.821213 -1e-06 2e-06 -23.887171 -0.249077 -0.839484 -60.827171 2.877722 -1.639941 -0.294024 1.679687 0.833256 -14.21821 0.093215 1.30058 -34.212051 -0.287563 0.967172 -20.033215 0.964538 1.212844 -0.0 1e-06 0.0 -3.44039 0.788233 0.501655 -15.928187 -3.167309 2.999708 -6.338825 -0.0 1e-06 -18.123449 3.648186 -4.905672 -4e-06 0.0 -2e-06 -43.365356 38.328331 -25.444139 -23.522343 50.384048 -77.5951 -0.867356 18.16441 -0.231328 -17.932346 -10.616305 -45.289047 2.243541 -5.255039 -3.180158 14.282892 -0.826593 6.952506 -2e-06 -12.690609 -2e-06 15.979501 -17.421225 2.748406 1.665666 -1.955922 -2.878299 4.727798 -4.170588 4.993925 11.020524 3e-06 0.0 12.109051 -3.735717 -2.866784 1e-06 0.0 0.0 1.291985 -1.92855 -1.498089 14.800131 0.567469 3.86561 14.242571 -1.341738 -6.660657 19.631969 0.143926 -0.648243 49.74818 -0.618526 -6.060322 0.353029 -1.51115 -0.03194 20.222788 3.684312 2.316633 18.78727 4e-06 2e-06 10.751624 -0.479869 1.397908 -1e-06 -1e-06 -1e-06 3.273806 0.305947 -0.58011 21.486813 11.83038 2.266137 8.162927 3e-06 1e-06 18.399082 -3.798986 -4.940575 3e-06 0.0 -1e-06 6.976703 21.242195 -53.297749 -0.412424 -0.56809 33.978161 -9.586662 -4.248409 4.590909 1.647 -1.855785 1.05815 -0.0 -0.0 2e-06 -12.936483 -7.154654 -36.846165 0.256282 0.726371 37.568165 17.203484 10.291206 -15.505068 -1.384388 1.007133 0.174815 -0.0 0.0 -1e-06 
0.0 0.0 0.0 0.0 -0.0 0.0 20.687195 91.733307 8.550768 -3.017833 -18.403141 17.78792 0.378987 0.527848 12.809669 -0.282119 1.717747 -0.522323 2.304307 0.242856 6.078297 5.591728 1.302746 -0.048922 -1.054974 0.673539 -3.610034 -4.382589 1.447054 -2.204821 7.7e-05 -2.3e-05 5e-06 0.040385 -0.05988 -0.064361 0.789332 -3.842552 -10.759853 -0.717125 3.720597 -10.709687 30.145166 -22.976576 -12.107683 8.805705 -47.849579 -83.770828 1.877976 -22.408892 -0.294019 4.907041 2.551646 -59.857155 -5.882107 9.861286 0.702592 -10.936875 -0.360575 7.156209 3e-06 8.774827 -0.0 -16.216614 19.216387 6.459218 -1.844033 2.498505 -2.507278 -10.163603 4.678945 4.621109 -20.976028 -4e-06 5e-06 -21.226292 2.451697 -3.593997 -1e-06 -5e-06 -0.0 -1.362682 2.240798 -0.746323 -21.334921 0.584909 3.008327 -13.82122 -3e-06 4e-06 -23.887178 -0.249079 -0.83948 -60.862667 2.87735 -1.647884 -0.294025 1.679688 0.833257 -14.218215 0.093214 1.300582 -34.212063 -0.287564 0.967175 -20.03322 0.964539 1.212846 0.0 2e-06 0.0 -3.440389 0.788234 0.501657 -15.928191 -3.167311 2.999709 -6.338828 -1e-06 2e-06 -18.123453 3.648184 -4.905669 -4e-06 1e-06 -2e-06 -43.214939 38.240063 -25.349955 -23.733274 50.446945 -77.751488 -0.814277 18.084019 -0.187428 -18.056967 -10.609002 -45.432129 2.243542 -5.255037 -3.180158 14.282896 -0.826596 6.952506 -1e-06 -12.690605 1e-06 15.977755 -17.372576 2.736115 1.665666 -1.955922 -2.878299 4.7278 -4.170588 4.993926 11.020528 2e-06 0.0 12.109053 -3.735718 -2.866784 1e-06 0.0 -0.0 1.291986 -1.92855 -1.498089 14.800132 0.567467 3.865611 14.242577 -1.341738 -6.660658 19.631973 0.143924 -0.648244 49.758221 -0.607649 -6.044121 0.353029 -1.511152 -0.03194 20.222797 3.684309 2.316633 18.787275 1e-06 0.0 10.75163 -0.47987 1.397907 -1e-06 -1e-06 -2e-06 3.273808 0.305947 -0.580111 21.486818 11.830373 2.266135 8.16293 0.0 -0.0 18.39909 -3.798988 -4.940576 4e-06 -0.0 -1e-06 6.943387 21.259321 -53.364555 -0.412711 -0.565299 34.00462 -9.606791 -4.387339 4.690173 1.646875 -1.86313 1.060149 -0.0 0.0 2e-06 -12.914327 -7.171677 -36.830048 0.246851 0.715463 37.692219 17.127182 10.215491 -15.657316 -1.384205 1.014127 0.175744 -0.0 0.0 -1e-06 
0.0 0.0 0.0 0.0 -0.0 0.0 20.604128 91.721169 8.592662 -3.015627 -18.291315 17.799442 0.361957 0.540103 12.813218 -0.284136 1.713033 -0.515226 2.297415 0.23644 6.079767 5.663323 1.278869 -0.121236 -1.069269 0.637303 -3.611487 -4.383609 1.419097 -2.315375 7.7e-05 -2.3e-05 5e-06 0.035616 -0.0545 -0.066574 0.785106 -3.834637 -10.75871 -0.722919 3.723932 -10.706342 30.059383 -22.960314 -12.055518 9.018826 -47.88792 -83.948288 1.825081 -22.353445 -0.22955 4.92014 2.545275 -59.73336 -5.882107 9.86129 0.70259 -10.936873 -0.360577 7.156208 2e-06 8.77483 -2e-06 -16.224131 19.18651 6.452485 -1.844033 2.498506 -2.507278 -10.163601 4.678946 4.62111 -20.976027 -5e-06 3e-06 -21.22629 2.451697 -3.594 -1e-06 -5e-06 -0.0 -1.362681 2.240799 -0.746324 -21.334921 0.584908 3.008324 -13.821218 -3e-06 3e-06 -23.887178 -0.249079 -0.839481 -60.848373 2.873605 -1.641688 -0.294025 1.679688 0.833256 -14.218213 0.093214 1.300581 -34.212059 -0.287565 0.967173 -20.033218 0.964537 1.212845 -0.0 1e-06 0.0 -3.44039 0.788233 0.501657 -15.928189 -3.167313 2.999707 -6.338827 -0.0 2e-06 -18.123447 3.648184 -4.905672 -4e-06 1e-06 -2e-06 -43.066986 38.160843 -25.250568 -23.925467 50.526379 -77.931709 -0.751924 17.99539 -0.146598 -18.186356 -10.594955 -45.512802 2.243543 -5.255044 -3.180161 14.2829 -0.826595 6.952509 0.0 -12.690618 -2e-06 15.968344 -17.357847 2.742284 1.665667 -1.955924 -2.878301 4.727802 -4.170592 4.993927 11.020535 2e-06 -1e-06 12.109058 -3.735721 -2.866787 -0.0 0.0 -0.0 1.291986 -1.928552 -1.498091 14.800138 0.567468 3.865611 14.242582 -1.34174 -6.660665 19.631979 0.143925 -0.648246 49.79734 -0.598855 -6.041317 0.353029 -1.511152 -0.03194 20.222801 3.684312 2.316633 18.787283 2e-06 -1e-06 10.751633 -0.479871 1.397908 -1e-06 -1e-06 -2e-06 3.273808 0.305947 -0.580111 21.486824 11.830387 2.266138 8.16293 0.0 -0.0 18.399094 -3.79899 -4.940579 3e-06 -0.0 -1e-06 6.942235 21.29129 -53.427719 -0.41392 -0.568269 34.035156 -9.634969 -4.544335 4.771106 1.646931 -1.877978 1.05838 -0.0 0.0 2e-06 -12.79832 -7.16139 -36.854202 0.241132 0.708123 37.803913 16.973827 10.111261 -15.91501 -1.382919 1.014158 0.158158 -0.0 0.0 -1e-06 
0.0 0.0 0.0 0.0 -0.0 0.0 20.525936 91.710442 8.632189 -3.030187 -18.182394 17.820042 0.349746 0.554659 12.80778 -0.286284 1.70842 -0.508106 2.293943 0.238308 6.083869 5.720638 1.240607 -0.206004 -1.069503 0.6234 -3.612744 -4.366756 1.392686 -2.398578 7.7e-05 -2.3e-05 5e-06 0.027389 -0.042073 -0.071653 0.775771 -3.820194 -10.761477 -0.730411 3.734847 -10.707016 29.950947 -22.933241 -11.974159 9.247954 -47.937298 -84.15696 1.740414 -22.303356 -0.160176 4.941145 2.542871 -59.682636 -5.882106 9.861286 0.702591 -10.93687 -0.360575 7.15621 1e-06 8.774827 0.0 -16.222977 19.1581 6.438479 -1.844032 2.498505 -2.507278 -10.163596 4.678945 4.621112 -20.976021 -4e-06 6e-06 -21.226286 2.451698 -3.593997 -1e-06 -6e-06 -0.0 -1.362682 2.240798 -0.746324 -21.334913 0.584909 3.00833 -13.821214 -2e-06 6e-06 -23.887171 -0.249077 -0.839478 -60.793587 2.866921 -1.628928 -0.294025 1.679687 0.833256 -14.218208 0.093214 1.300583 -34.212048 -0.287561 0.967177 -20.033215 0.96454 1.212847 -0.0 1e-06 0.0 -3.440388 0.788233 0.501655 -15.928185 -3.167309 2.999712 -6.338827 -0.0 3e-06 -18.123444 3.648184 -4.905665 -5e-06 0.0 -2e-06 -42.932526 38.119289 -25.153549 -24.077965 50.586617 -78.070786 -0.705012 17.925085 -0.118124 -18.30578 -10.594439 -45.575813 2.243542 -5.255038 -3.180159 14.282896 -0.826598 6.952509 -0.0 -12.690607 1e-06 15.94222 -17.369886 2.765857 1.665666 -1.955922 -2.8783 4.727802 -4.170589 4.993928 11.020528 1e-06 1e-06 12.109055 -3.735719 -2.866783 1e-06 0.0 0.0 1.291986 -1.92855 -1.49809 14.800132 0.567466 3.865613 14.242576 -1.341739 -6.660659 19.631973 0.143921 -0.648244 49.816006 -0.603372 -6.047926 0.353029 -1.511152 -0.03194 20.222797 3.684307 2.316635 18.787279 -1e-06 2e-06 10.751627 -0.479873 1.397907 -1e-06 -1e-06 -2e-06 3.273808 0.305946 -0.58011 21.48682 11.830374 2.266137 8.16293 0.0 1e-06 18.399088 -3.798992 -4.940576 4e-06 -0.0 -1e-06 6.956594 21.330496 -53.486908 -0.412848 -0.574019 34.063984 -9.652524 -4.701979 4.831685 1.646454 -1.893245 1.052234 -0.0 0.0 2e-06 -12.744454 -7.174656 -36.840717 0.23874 0.703335 37.898033 16.893049 10.05652 -16.03376 -1.381294 1.014851 0.125985 -0.0 0.0 -1e-06 
